<svg width="662" height="139" viewBox="0 0 662 139" fill="none" xmlns="http://www.w3.org/2000/svg">
<path d="M326.012 75.3512L315 64.0582C315 64.0582 328.156 51.9538 334.879 46.1383C329.101 45.834 323.322 45.5635 317.544 45.2592C321.832 41.4723 326.121 37.7192 330.482 34C339.967 34.6424 349.489 35.251 359.011 35.8934C358.32 44.8196 357.848 53.7796 357.521 62.7058C353.341 66.3912 349.198 70.1443 345.092 73.9312C345.201 68.4199 345.382 62.9087 345.6 57.3974C338.986 63.2468 326.012 75.3512 326.012 75.3512Z" fill="#1189CB"/>
<path d="M56.9531 137H31.2188V56.3516H3.23438V35.5391H84.9375V56.3516H56.9531V137ZM88.1016 137V60.4297H112.359V74.9141H112.852C115.664 64.5078 121.664 59.3047 130.852 59.3047C133.336 59.3047 135.445 59.6328 137.18 60.2891V81.5234C134.836 80.5859 132.188 80.1172 129.234 80.1172C123.984 80.1172 119.977 81.5469 117.211 84.4062C114.445 87.2656 113.062 91.3672 113.062 96.7109V137H88.1016ZM144.984 137V60.4297H169.875V137H144.984ZM166.5 50.7266C164.062 53.0703 161.039 54.2422 157.43 54.2422C153.82 54.2422 150.773 53.0703 148.289 50.7266C145.852 48.3828 144.633 45.4766 144.633 42.0078C144.633 38.5859 145.852 35.7031 148.289 33.3594C150.773 31.0156 153.82 29.8438 157.43 29.8438C161.039 29.8438 164.062 31.0156 166.5 33.3594C168.938 35.6563 170.156 38.5391 170.156 42.0078C170.156 45.4766 168.938 48.3828 166.5 50.7266ZM231.258 138.125C225.68 138.125 220.852 136.883 216.773 134.398C212.742 131.867 209.742 128.352 207.773 123.852H207.281V137H182.461V35.5391H207.422V74H207.914C209.883 69.3594 212.859 65.75 216.844 63.1719C220.875 60.5937 225.609 59.3047 231.047 59.3047C240.703 59.3047 248.203 62.75 253.547 69.6406C258.891 76.5312 261.562 86.2344 261.562 98.75C261.562 111.219 258.914 120.898 253.617 127.789C248.32 134.68 240.867 138.125 231.258 138.125ZM221.695 78.7812C217.383 78.7812 213.914 80.6094 211.289 84.2656C208.664 87.875 207.328 92.7031 207.281 98.75C207.328 104.844 208.641 109.695 211.219 113.305C213.844 116.867 217.336 118.648 221.695 118.648C226.102 118.648 229.594 116.867 232.172 113.305C234.797 109.695 236.109 104.844 236.109 98.75C236.109 92.6562 234.797 87.8047 232.172 84.1953C229.594 80.5859 226.102 78.7812 221.695 78.7812ZM353.32 83.6328C353.32 75.9453 356.367 69.8516 362.461 65.3516C368.602 60.8516 376.945 58.6016 387.492 58.6016C397.898 58.6016 406.148 60.9219 412.242 65.5625C418.336 70.1562 421.43 76.4141 421.523 84.3359H398.742C398.648 81.5703 397.57 79.3906 395.508 77.7969C393.445 76.2031 390.703 75.4062 387.281 75.4062C384.234 75.4062 381.797 76.0156 379.969 77.2344C378.141 78.4531 377.227 80.0469 377.227 82.0156C377.227 85.1094 380.086 87.2422 385.805 88.4141L401.836 91.6484C409.477 93.2891 415.008 95.7734 418.43 99.1016C421.898 102.383 423.633 106.93 423.633 112.742C423.633 120.664 420.352 126.992 413.789 131.727C407.227 136.461 398.578 138.828 387.844 138.828C376.828 138.828 368.133 136.508 361.758 131.867C355.43 127.227 352.008 120.922 351.492 112.953H375.68C376.055 115.812 377.32 118.039 379.477 119.633C381.68 121.227 384.609 122.023 388.266 122.023C391.594 122.023 394.195 121.461 396.07 120.336C397.992 119.164 398.953 117.57 398.953 115.555C398.953 114.008 398.32 112.766 397.055 111.828C395.789 110.844 393.656 110.047 390.656 109.438L376.172 106.414C368.672 104.82 362.977 102.102 359.086 98.2578C355.242 94.3672 353.32 89.4922 353.32 83.6328ZM438.75 43.2734H463.711V60.4297H477.492V78.7812H463.711V110.914C463.711 116.211 466.641 118.859 472.5 118.859C474.562 118.859 476.203 118.742 477.422 118.508V136.227C474.469 136.836 470.836 137.141 466.523 137.141C456.586 137.141 449.461 135.5 445.148 132.219C440.883 128.938 438.75 123.523 438.75 115.977V78.7812H428.344V60.4297H438.75V43.2734ZM519.047 120.969C522.938 120.969 526.266 119.891 529.031 117.734C531.844 115.578 533.25 112.836 533.25 109.508V104.234L519.328 105.148C516.094 105.383 513.586 106.227 511.805 107.68C510.023 109.086 509.133 110.914 509.133 113.164C509.133 115.555 510.023 117.453 511.805 118.859C513.633 120.266 516.047 120.969 519.047 120.969ZM510.188 138.125C502.969 138.125 496.875 135.945 491.906 131.586C486.938 127.227 484.453 121.648 484.453 114.852C484.453 107.727 487.102 102.172 492.398 98.1875C497.695 94.2031 505.336 91.9062 515.32 91.2969L533.25 90.2422V85.8828C533.25 82.8828 532.266 80.5625 530.297 78.9219C528.328 77.2344 525.68 76.3906 522.352 76.3906C519.07 76.3906 516.375 77.1641 514.266 78.7109C512.203 80.2109 510.984 82.1797 510.609 84.6172H488.18C488.555 76.6953 491.906 70.3906 498.234 65.7031C504.562 60.9688 513.023 58.6016 523.617 58.6016C533.836 58.6016 542.062 60.9922 548.297 65.7734C554.531 70.5078 557.648 76.7422 557.648 84.4766V137H533.391V126.102H532.898C530.883 129.852 527.789 132.805 523.617 134.961C519.445 137.07 514.969 138.125 510.188 138.125ZM569.602 137V60.4297H593.859V74.8438H594.352C596.32 69.6875 599.297 65.75 603.281 63.0312C607.312 60.3125 612.234 58.9531 618.047 58.9531C626.531 58.9531 633.07 61.4844 637.664 66.5469C642.305 71.6094 644.625 78.7109 644.625 87.8516V137H619.734V93.1953C619.734 88.7891 618.68 85.3672 616.57 82.9297C614.508 80.4922 611.461 79.2734 607.43 79.2734C603.492 79.2734 600.352 80.6094 598.008 83.2812C595.711 85.9531 594.562 89.4219 594.562 93.6875V137H569.602Z" fill="#474747"/>
<path d="M307.547 76.3203C303.75 76.3203 300.539 77.6094 297.914 80.1875C295.336 82.7188 293.883 85.9766 293.555 89.9609H321.398C321.164 85.8828 319.781 82.6016 317.25 80.1172C314.719 77.5859 311.484 76.3203 307.547 76.3203ZM321.961 112.812H344.461C343.242 120.734 339.352 127.062 332.789 131.797C326.227 136.484 317.953 138.828 307.969 138.828C295.781 138.828 286.242 135.312 279.352 128.281C272.461 121.203 269.016 111.477 269.016 99.1016C269.016 86.7266 272.438 76.8828 279.281 69.5703C286.172 62.2578 295.453 58.6016 307.125 58.6016C318.656 58.6016 327.82 62.0938 334.617 69.0781C341.461 76.0625 344.883 85.4141 344.883 97.1328V104.164H293.203V105.711C293.203 110.305 294.586 114.031 297.352 116.891C300.164 119.75 303.82 121.18 308.32 121.18C311.648 121.18 314.531 120.43 316.969 118.93C319.406 117.43 321.07 115.391 321.961 112.812Z" fill="#1189CB"/>
</svg>
